<mxfile host="app.diagrams.net" modified="2024-05-14T14:44:23.593Z" agent="Mozilla/5.0 (X11; Linux x86_64) AppleWebKit/537.36 (KHTML, like Gecko) Chrome/124.0.0.0 Safari/537.36" version="24.4.0" etag="m9g20sU2cXH6eLJPJ3FW" type="github">
  <diagram name="Page-1" id="W5NrXuN-qVCim_rLeDmw">
    <mxGraphModel>
      <root>
        <mxCell id="0" />
        <mxCell id="1" parent="0" />
      </root>
    </mxGraphModel>
  </diagram>
</mxfile>
